<svg xmlns="http://www.w3.org/2000/svg" viewBox="0 0 5428 1950" fill="#0E4744" role="img" aria-label="Setpal">
<g transform="translate(-88.68269303441048,1483.2478300780058) scale(1,-1)"><path d="M635.5034886077046 -26.447921223938465Q547.5326676443219 -26.447921223938465 487.7032888196409 -3.414509765803814Q427.87390999495983 19.618901692330837 392.1352646499872 42.534980956465006Q356.3966193050146 65.45106022059917 340.90601237118244 65.45106022059917Q327.45813427865505 65.45106022059917 314.1261572279036 51.17368123307824Q300.79418017715216 36.89630224555731 287.08217667788267 18.117574706673622Q273.3701731786132 -0.6611528322100639 259.6915253922343 -14.938531819730997Q246.01287760585546 -29.21591080725193 231.90898209810257 -29.21591080725193Q218.56247493624687 -29.21591080725193 208.74256282672286 -20.41199780255556Q198.92265071719885 -11.608084797859192 195.1946822926402 6.746359050273895L122.49589290469885 376.4909560531378Q120.10125537216663 390.7307989895344 125.23050154745579 400.5560153797269Q130.35974772274494 410.3812317699194 142.9542249366641 414.8371686190367Q156.65002262592316 420.058441080153 167.5845482610166 414.307842284441Q178.51907389611006 408.557243488729 186.35629948228598 393.00278743356466Q253.8044078797102 256.2291123047471 324.48317977041006 178.37692692130804Q395.1619516611099 100.52474153786898 468.5153793953359 68.25400276854634Q541.8688071295619 35.98326399922371 616.4102268889546 35.98326399922371Q723.0503709316254 35.98326399922371 785.3384715989232 93.25938965007663Q847.626572266221 150.53551530092955 847.861236654222 252.65580501407385Q848.095901042223 316.49594336003065 820.0971975103021 369.6814217939973Q792.0984939783812 422.8669002279639 718.7545024417341 470.5590062662959Q645.410510905087 518.2511123046279 509.67465624958277 564.2564560547471Q356.0506549477577 617.2405216470361 263.68266455084085 682.5845331214368Q171.314674153924 747.9285445958376 129.99868359416723 831.4937980137765Q88.68269303441048 915.0590514317155 88.68269303441048 1022.0482093095779Q88.68269303441048 1141.549475260079 146.8906761072576 1231.9974143877625Q205.09865918010473 1322.4453535154462 308.71191357448697 1372.939984537661Q412.3251679688692 1423.434615559876 547.7329964190722 1423.434615559876Q636.2476827800274 1423.434615559876 693.7436765953898 1403.586569417268Q751.2396704107523 1383.73852327466 786.4009542651474 1363.623814534396Q821.5622381195426 1343.5091057941318 841.6528027355671 1343.5091057941318Q859.8046992197633 1343.5091057941318 877.1127530932426 1364.1078154295683Q894.420806966722 1384.7065250650048 912.275500651449 1405.5718972980976Q930.1301943361759 1426.4372695311904 949.6260123699903 1426.4372695311904Q963.039169922471 1426.4372695311904 972.4243928231299 1417.8627166338265Q981.8096157237887 1409.2881637364626 988.2548577487469 1386.3044684231281L1088.164282552898 1014.8104596361518Q1092.6122216805816 998.6213326826692 1087.6043065600097 986.4521642252803Q1082.5963914394379 974.2829957678914 1069.4339189454913 969.3603841140866Q1055.9434593096375 964.9044472649693 1044.8916014805436 970.584375243634Q1033.8397436514497 976.2643032222986 1026.1598372384906 990.298782877624Q953.1917198896408 1132.517717935145 878.6130098477006 1213.3298569321632Q804.0342998057604 1294.1419959291816 727.2622539885342 1327.6900453269482Q650.490208171308 1361.2380947247148 570.6661051437259 1361.2380947247148Q464.9779495447874 1361.2380947247148 399.90978906303644 1297.6832846663892Q334.8416285812855 1234.1284746080637 334.8416285812855 1126.2454674467444Q334.8416285812855 1061.2879627272487 362.3069979660213 1006.2118151038885Q389.7723673507571 951.1356674805284 460.78968611732125 901.752917073667Q531.8070048838854 852.3701666668057 661.833533205092 804.5008639320731Q820.7002470716834 747.0021656900644 913.2015813812613 681.8834849447012Q1005.7029156908393 616.764804199338 1045.3495652675629 538.095524251461Q1084.9962148442864 459.4262443035841 1084.7615504562855 360.6183987632394Q1084.5268860682845 253.3918183594942 1031.4469605311751 165.54123136401176Q978.3670349940658 77.69064436852932 878.1924991868436 25.621361572295427Q778.0179633796215 -26.447921223938465 635.5034886077046 -26.447921223938465Z"/><path d="M2089.5848608389497 557.7274182960391Q2089.5848608389497 525.7011699229479 2070.905089110136 508.12005940824747Q2052.2253173813224 490.53894889354706 2016.247080564499 490.53894889354706H1392.8283986002207V538.6663704439998H1804.9996346011758Q1840.0339995101094 538.6663704439998 1840.0339995101094 571.9727848321199Q1840.0339995101094 723.8797607421875 1790.6232513822615 800.3772597648203Q1741.2125032544136 876.8747587874532 1663.5910948887467 876.8747587874532Q1601.1429726555943 876.8747587874532 1554.5029148757458 837.7693531885743Q1507.8628570958972 798.6639475896955 1481.7508381344378 722.6504693999887Q1455.6388191729784 646.6369912102818 1455.6388191729784 536.468772135675Q1455.6388191729784 336.641975261271 1545.1308161616325 236.00586425885558Q1634.6228131502867 135.36975325644016 1780.505418293178 135.36975325644016Q1876.5109028294683 135.36975325644016 1945.957642737776 181.69265909865499Q2015.4043826460838 228.0155649408698 2039.2068120092154 308.97323486208916Q2048.542642250657 321.2424220368266 2054.9372240379453 325.686371255666Q2061.3318058252335 330.1303204745054 2067.85704703629 330.1303204745054Q2077.3715934231877 330.1303204745054 2082.1088776029646 321.8011052235961Q2086.8461617827415 313.47188997268677 2086.4061593413353 300.3387006819248Q2081.1847827136517 210.495987303555 2027.8635183908045 137.1373305656016Q1974.5422540679574 63.77867382764816 1885.4410914704204 20.694693684577942Q1796.3399288728833 -22.38928645849228 1683.0655305981636 -22.38928645849228Q1549.0577696934342 -22.38928645849228 1446.3726521804929 34.71466113254428Q1343.6875346675515 91.81860872358084 1285.7410014644265 195.41986287385225Q1227.7944682613015 299.02111702412367 1227.7944682613015 437.8023512363434Q1227.7944682613015 584.2928792312741 1284.6410474441946 696.4261242672801Q1341.4876266270876 808.5593693032861 1446.5234316401184 872.2259916178882Q1551.5592366531491 935.8926139324903 1695.2229213863611 935.8926139324903Q1817.5506391599774 935.8926139324903 1905.9238117672503 887.1526289880276Q1994.2969843745232 838.4126440435648 2041.9409226067364 753.1353403329849Q2089.5848608389497 667.858036622405 2089.5848608389497 557.7274182960391Z"/><path d="M2264.7439964190125 847.7812887355685 2198.5942477211356 863.0506484359503Q2183.0077356770635 867.8745935857296 2176.766470540315 874.3225111477077Q2170.5252054035664 880.7704287096858 2170.5252054035664 889.7863199859858Q2170.5252054035664 901.2848204746842 2178.60109423846 907.5940682776272Q2186.6769830733538 913.9033160805702 2199.506124675274 913.9033160805702H2273.5650572925806Q2289.9969399422407 913.9033160805702 2300.840843588114 919.6299270018935Q2311.684747233987 925.3565379232168 2322.161944337189 940.5323844403028L2461.586142577231 1108.708604492247Q2474.6473124995828 1124.7377403974533 2487.02183162421 1132.5123181156814Q2499.396350748837 1140.2868958339095 2511.6922102868557 1140.2868958339095Q2525.201387695968 1140.2868958339095 2532.8146347664297 1131.6789961755276Q2540.427881836891 1123.0710965171456 2540.427881836891 1106.9219475910068V253.78580566495657Q2540.427881836891 179.06842057406902 2569.383908610791 141.25908284634352Q2598.3399353846908 103.44974511861801 2649.398631185293 103.44974511861801Q2678.211820475757 103.44974511861801 2697.2557973638177 113.59632633626461Q2716.2997742518783 123.74290755391121 2729.5584659837186 139.3535006530583Q2742.817157715559 154.96409375220537 2754.3171540535986 171.76544800028205Q2765.8171503916383 188.56680224835873 2779.009053386748 201.87634830921888Q2787.7929342463613 204.58305647969246 2794.176885906607 199.14047737792134Q2800.5608375668526 193.69789827615023 2799.6274879574776 178.54873144626617Q2792.2166897803545 120.13014388084412 2760.0568065606058 75.70630045607686Q2727.896923340857 31.282457031309605 2674.0731901861727 6.235921386629343Q2620.2494570314884 -18.81061425805092 2548.380434244871 -18.81061425805092Q2429.2234023436904 -18.81061425805092 2362.2795751951635 39.79989095032215Q2295.3357480466366 98.41039615869522 2295.3357480466366 218.44208919256926V806.8856367170811Q2295.3357480466366 824.704151853919 2288.611809000373 833.8120856918395Q2281.887869954109 842.9200195297599 2264.7439964190125 847.7812887355685ZM2449.58038867265 853.0827581360936 2452.7164296880364 913.9033160805702H2765.2546282559633Q2780.131788738072 913.9033160805702 2788.0263489596546 908.2327254228294Q2795.920909181237 902.5621347650886 2795.920909181237 891.0609371736646Q2795.920909181237 874.9198111966252 2779.377104818821 864.0012846663594Q2762.8333004564047 853.0827581360936 2727.4524251297116 853.0827581360936Z"/><path d="M3228.6972561851144 895.7518435865641V772.5942013338208L3234.670472331345 756.8157146796584V-357.1343823224306Q3234.670472331345 -379.56886848807335 3242.1824546717107 -391.04213508963585Q3249.6944370120764 -402.51540169119835 3265.433064453304 -406.27004247903824L3325.699978515506 -416.243370115757Q3338.9451904296875 -419.9313173815608 3344.770462565124 -426.4432313628495Q3350.5957347005606 -432.95514534413815 3350.5957347005606 -442.44036539644003Q3350.5957347005606 -453.6962037757039 3342.6158404946327 -460.36144702136517Q3334.635946288705 -467.0266902670264 3317.716179035604 -467.0266902670264H2918.068664714694Q2902.055574707687 -467.0266902670264 2894.0623443201184 -460.36144702136517Q2886.06911393255 -453.6962037757039 2886.06911393255 -442.44036539644003Q2886.06911393255 -433.3951477855444 2892.1877299807966 -426.6925589181483Q2898.306346029043 -419.98997005075216 2911.7275696620345 -416.0673583969474L2955.1570319011807 -406.5047068670392Q2971.1569960936904 -402.2807373031974 2978.538310058415 -391.04213508963585Q2985.9196240231395 -379.8035328760743 2985.9196240231395 -357.77972281724215V762.904659666121Q2985.9196240231395 779.1578082665801 2980.385002359748 786.6257364079356Q2974.8503806963563 794.0936645492911 2962.1704669594765 795.5869685858488L2901.055528320372 797.6775942370296Q2889.2289902344346 799.7682198882103 2884.0223772786558 805.4334846995771Q2878.815764322877 811.0987495109439 2878.815764322877 819.7306370437145Q2878.815764322877 829.9678439125419 2885.0810262858868 835.6024374999106Q2891.3462882488966 841.2370310872793 2907.04473990947 847.4209363609552L3126.3785965144634 918.8555592447519Q3149.63433072716 927.7301088869572 3163.594140704721 931.1167234703898Q3177.5539506822824 934.5033380538225 3188.9698053374887 934.5033380538225Q3209.1001933589578 934.5033380538225 3218.898724772036 923.80347680673Q3228.6972561851144 913.1036155596375 3228.6972561851144 895.7518435865641ZM3196.929535970092 682.5925426408648 3169.049901366234 718.5174599587917Q3242.9244794920087 823.541108071804 3331.980232015252 879.7168610021472Q3421.0359845384955 935.8926139324903 3530.74501953274 935.8926139324903Q3643.387555502355 935.8926139324903 3731.308786459267 878.9446748048067Q3819.230017416179 821.9967356771231 3869.62995922938 719.8381505534053Q3920.0299010425806 617.6795654296875 3920.0299010425806 481.690296061337Q3920.0299010425806 326.8397216796875 3860.77265836671 213.46514680981636Q3801.5154156908393 100.09057193994522 3700.2662443853915 38.645304687321186Q3599.0170730799437 -22.79996256530285 3473.5586222335696 -22.79996256530285Q3364.1267900392413 -22.79996256530285 3285.155001383275 24.627913899719715Q3206.1832127273083 72.05579036474228 3155.0526847317815 166.34894547611475L3198.0094667971134 200.6498183608055Q3238.721346192062 126.98856136202812 3295.013336263597 89.40722623839974Q3351.305326335132 51.825891114771366 3418.366676107049 51.825891114771366Q3488.5667924806476 51.825891114771366 3543.924228027463 92.38058439269662Q3599.2816635742784 132.93527767062187 3631.041725423187 221.55937418714166Q3662.8017872720957 310.18347070366144 3662.8017872720957 452.85301676392555Q3662.8017872720957 587.4265787750483 3633.108418945223 672.9360454902053Q3603.4150506183505 758.4455122053623 3551.8696551918983 799.6549048647285Q3500.324259765446 840.8642975240946 3434.185528971255 840.8642975240946Q3371.9589949548244 840.8642975240946 3311.325642090291 802.260362546891Q3250.692289225757 763.6564275696874 3196.929535970092 682.5925426408648Z"/><path d="M4610.039051920176 111.09835400432348V126.26090218126774L4595.572506509721 124.46348209679127V736.1541093736887Q4595.572506509721 810.5036619454622 4561.221811685711 850.5370965972543Q4526.871116861701 890.5705312490463 4463.220346353948 890.5705312490463Q4399.2254638671875 890.5705312490463 4366.673402994871 861.3730777986348Q4334.121342122555 832.1756243482232 4334.121342122555 793.6155511066318V710.7144186198711Q4334.121342122555 657.3226254880428 4297.856150146574 625.4000370278955Q4261.590958170593 593.4774485677481 4199.961950846016 593.4774485677481Q4150.402273111045 593.4774485677481 4122.510393716395 619.6186860352755Q4094.6185143217444 645.7599235028028 4094.6185143217444 693.8877942711115Q4094.6185143217444 751.6743543297052 4141.259721271694 807.2129048667848Q4187.900928221643 862.7514554038644 4278.811343912035 899.0233738608658Q4369.7217596024275 935.2952923178673 4502.318700358272 935.2952923178673Q4674.62503580749 935.2952923178673 4758.988880045712 863.740699544549Q4843.352724283934 792.1861067712307 4843.352724283934 667.0021868497133V144.16466992348433Q4843.352724283934 111.91921386867762 4855.41674226895 96.86585123836994Q4867.480760253966 81.81248860806227 4887.4940838217735 81.81248860806227Q4907.843399576843 81.81248860806227 4920.224761962891 92.7124951183796Q4932.6061243489385 103.61250162869692 4938.3927454426885 120.70860774815083Q4941.683365397155 125.924579590559 4945.561991211027 129.07121655344963Q4949.4406170248985 132.21785351634026 4954.79788736999 132.21785351634026Q4962.477793782949 132.21785351634026 4966.033749349415 126.83126049861312Q4969.589704915881 121.44466748088598 4969.589704915881 111.94077278673649Q4969.589704915881 85.86627197265625 4949.549800537527 54.850416503846645Q4929.509896159172 23.83456103503704 4888.074057780206 1.235982421785593Q4846.63821940124 -21.362596191465855 4781.971751302481 -21.362596191465855Q4698.995970703661 -21.362596191465855 4654.5175113119185 14.467967610806227Q4610.039051920176 50.29853141307831 4610.039051920176 111.09835400432348ZM4048.639785155654 202.1811796873808Q4048.639785155654 318.308971516788 4149.411538410932 390.13820304349065Q4250.18329166621 461.9674345701933 4445.049707680941 461.9674345701933Q4509.660424478352 461.9674345701933 4557.156387776136 450.17274210602045Q4604.652351073921 438.3780496418476 4641.908379882574 419.95137076824903L4627.380535155535 382.66656900942326Q4591.868470214307 398.94392643123865 4555.05637801066 408.46128303930163Q4518.2442858070135 417.9786396473646 4473.73215983063 417.9786396473646Q4391.542695149779 417.9786396473646 4346.125319417566 371.3758717440069Q4300.707943685353 324.7731038406491 4300.707943685353 241.69028873741627Q4300.707943685353 160.24749560654163 4341.22134090215 117.0994095876813Q4381.734738118947 73.95132356882095 4446.196183919907 73.95132356882095Q4496.6255419924855 73.95132356882095 4544.2615866698325 97.28465649485588Q4591.897631347179 120.61798942089081 4624.372336424887 162.85803743451834L4640.889562010765 129.9518525376916Q4590.5216326490045 57.10927913337946 4505.247099690139 17.77067244425416Q4419.972566731274 -21.56793424487114 4323.092701822519 -21.56793424487114Q4201.15421679616 -21.56793424487114 4124.897000975907 40.46933772787452Q4048.639785155654 102.50660970062017 4048.639785155654 202.1811796873808Z"/><path d="M5414.043900065124 1444.4963356107473V109.89230794459581Q5414.043900065124 87.45782177895308 5421.55588240549 76.10188737139106Q5429.067864745855 64.74595296382904 5444.806492187083 60.52198339998722L5491.814734049141 50.783320151269436Q5505.059945963323 47.06604655086994 5510.88521809876 40.56879573687911Q5516.710490234196 34.07154492288828 5516.710490234196 24.586324870586395Q5516.710490234196 13.330486491322517 5508.730596028268 6.665243245661259Q5500.7507018223405 0.0 5483.83093456924 0.0H5093.335331380367Q5077.32224137336 0.0 5069.329010985792 6.665243245661259Q5061.335780598223 13.330486491322517 5061.335780598223 24.586324870586395Q5061.335780598223 33.63154248148203 5067.45439664647 40.334131348878145Q5073.573012694716 47.03672021627426 5086.994236327708 50.95933187007904L5134.53045963496 60.52198339998722Q5150.530423827469 64.98061735183 5157.911737792194 76.10188737139106Q5165.293051756918 87.22315739095211 5165.293051756918 109.24696744978428V1311.6491516903043Q5165.293051756918 1327.9023002907634 5159.758430093527 1335.370228432119Q5154.223808430135 1342.8381565734744 5141.543894693255 1344.331460610032L5080.428956054151 1346.4220862612128Q5068.602417968214 1348.5127119123936 5063.395805012435 1354.1779767237604Q5058.189192056656 1359.8432415351272 5058.189192056656 1368.4751290678978Q5058.189192056656 1378.7123359367251 5064.454454019666 1384.7949207350612Q5070.719715982676 1390.8775055333972 5086.418167643249 1396.46408919245L5311.725240394473 1467.6000512689352Q5336.474278643727 1476.4746009111404 5350.2527600079775 1479.8612154945731Q5364.031241372228 1483.2478300780058 5374.61511002481 1483.2478300780058Q5394.446837238967 1483.2478300780058 5404.245368652046 1472.5479688309133Q5414.043900065124 1461.8481075838208 5414.043900065124 1444.4963356107473Z"/></g>
</svg>
